<mxfile host="65bd71144e">
    <diagram id="ZDBmzSuhziZs4p1k8_wP" name="Interface">
        <mxGraphModel dx="794" dy="489" grid="1" gridSize="10" guides="1" tooltips="1" connect="1" arrows="1" fold="1" page="1" pageScale="1" pageWidth="850" pageHeight="1100" background="none" math="0" shadow="0">
            <root>
                <mxCell id="0"/>
                <mxCell id="1" parent="0"/>
                <mxCell id="16" value="Simulation" style="rounded=0;whiteSpace=wrap;html=1;" parent="1" vertex="1">
                    <mxGeometry x="100" y="140" width="120" height="60" as="geometry"/>
                </mxCell>
                <mxCell id="39" style="edgeStyle=none;html=1;exitX=1;exitY=0.5;exitDx=0;exitDy=0;exitPerimeter=0;entryX=0;entryY=0.5;entryDx=0;entryDy=0;" edge="1" parent="1" source="17" target="30">
                    <mxGeometry relative="1" as="geometry"/>
                </mxCell>
                <mxCell id="17" value="&lt;b&gt;&lt;font style=&quot;color: rgb(255, 255, 255);&quot;&gt;DB&amp;nbsp;&lt;/font&gt;&lt;/b&gt;&lt;div&gt;&lt;b&gt;&lt;font style=&quot;color: rgb(255, 255, 255);&quot;&gt;Sqlite&lt;/font&gt;&lt;/b&gt;&lt;/div&gt;&lt;div&gt;&lt;b&gt;&lt;font style=&quot;color: rgb(255, 255, 255);&quot;&gt;Car Data&lt;/font&gt;&lt;/b&gt;&lt;/div&gt;" style="shape=cylinder3;whiteSpace=wrap;html=1;boundedLbl=1;backgroundOutline=1;size=15;fillColor=#008a00;fontColor=#ffffff;strokeColor=#005700;" parent="1" vertex="1">
                    <mxGeometry x="410" y="200" width="90" height="150" as="geometry"/>
                </mxCell>
                <mxCell id="18" value="Reforecast" style="rounded=0;whiteSpace=wrap;html=1;" parent="1" vertex="1">
                    <mxGeometry x="100" y="240" width="120" height="60" as="geometry"/>
                </mxCell>
                <mxCell id="19" value="Dashboard" style="rounded=0;whiteSpace=wrap;html=1;" parent="1" vertex="1">
                    <mxGeometry x="100" y="350" width="120" height="60" as="geometry"/>
                </mxCell>
                <mxCell id="25" value="" style="endArrow=classic;startArrow=classic;html=1;exitX=1;exitY=0.5;exitDx=0;exitDy=0;entryX=0;entryY=0;entryDx=0;entryDy=105;entryPerimeter=0;" parent="1" source="19" target="17" edge="1">
                    <mxGeometry width="50" height="50" relative="1" as="geometry">
                        <mxPoint x="340" y="350" as="sourcePoint"/>
                        <mxPoint x="390" y="300" as="targetPoint"/>
                    </mxGeometry>
                </mxCell>
                <mxCell id="26" value="" style="endArrow=classic;startArrow=classic;html=1;exitX=1;exitY=0.5;exitDx=0;exitDy=0;entryX=0;entryY=0.5;entryDx=0;entryDy=0;entryPerimeter=0;" parent="1" source="18" target="17" edge="1">
                    <mxGeometry width="50" height="50" relative="1" as="geometry">
                        <mxPoint x="220" y="275" as="sourcePoint"/>
                        <mxPoint x="380" y="190" as="targetPoint"/>
                    </mxGeometry>
                </mxCell>
                <mxCell id="27" value="" style="endArrow=classic;startArrow=classic;html=1;exitX=1;exitY=0.5;exitDx=0;exitDy=0;entryX=0;entryY=0;entryDx=0;entryDy=45;entryPerimeter=0;" parent="1" source="16" target="17" edge="1">
                    <mxGeometry width="50" height="50" relative="1" as="geometry">
                        <mxPoint x="230" y="195" as="sourcePoint"/>
                        <mxPoint x="410" y="180" as="targetPoint"/>
                    </mxGeometry>
                </mxCell>
                <mxCell id="30" value="CarData Model" style="swimlane;fontStyle=0;childLayout=stackLayout;horizontal=1;startSize=30;horizontalStack=0;resizeParent=1;resizeParentMax=0;resizeLast=0;collapsible=1;marginBottom=0;whiteSpace=wrap;html=1;" vertex="1" parent="1">
                    <mxGeometry x="620" y="215" width="160" height="120" as="geometry"/>
                </mxCell>
                <mxCell id="31" value="marque" style="text;strokeColor=none;fillColor=none;align=left;verticalAlign=middle;spacingLeft=4;spacingRight=4;overflow=hidden;points=[[0,0.5],[1,0.5]];portConstraint=eastwest;rotatable=0;whiteSpace=wrap;html=1;" vertex="1" parent="30">
                    <mxGeometry y="30" width="160" height="30" as="geometry"/>
                </mxCell>
                <mxCell id="32" value="modele" style="text;strokeColor=none;fillColor=none;align=left;verticalAlign=middle;spacingLeft=4;spacingRight=4;overflow=hidden;points=[[0,0.5],[1,0.5]];portConstraint=eastwest;rotatable=0;whiteSpace=wrap;html=1;" vertex="1" parent="30">
                    <mxGeometry y="60" width="160" height="30" as="geometry"/>
                </mxCell>
                <mxCell id="33" value="...." style="text;strokeColor=none;fillColor=none;align=left;verticalAlign=middle;spacingLeft=4;spacingRight=4;overflow=hidden;points=[[0,0.5],[1,0.5]];portConstraint=eastwest;rotatable=0;whiteSpace=wrap;html=1;" vertex="1" parent="30">
                    <mxGeometry y="90" width="160" height="30" as="geometry"/>
                </mxCell>
                <mxCell id="40" value="Initialiser la DB avec csv si elle est vide" style="rounded=1;whiteSpace=wrap;html=1;fillColor=#dae8fc;strokeColor=#6c8ebf;" vertex="1" parent="1">
                    <mxGeometry x="375" y="50" width="160" height="70" as="geometry"/>
                </mxCell>
                <mxCell id="41" style="edgeStyle=none;html=1;exitX=0.5;exitY=1;exitDx=0;exitDy=0;entryX=0.5;entryY=0;entryDx=0;entryDy=0;entryPerimeter=0;" edge="1" parent="1" source="40" target="17">
                    <mxGeometry relative="1" as="geometry"/>
                </mxCell>
            </root>
        </mxGraphModel>
    </diagram>
    <diagram id="3Wu0Km3Ty4qw8B9w3gvG" name="Page Forecast">
        <mxGraphModel dx="1149" dy="611" grid="1" gridSize="10" guides="1" tooltips="1" connect="1" arrows="1" fold="1" page="1" pageScale="1" pageWidth="850" pageHeight="1100" math="0" shadow="0">
            <root>
                <mxCell id="0"/>
                <mxCell id="1" parent="0"/>
                <mxCell id="zodPbSXafXfNkhSAw9ry-3" style="edgeStyle=none;html=1;exitX=1;exitY=0.5;exitDx=0;exitDy=0;entryX=0;entryY=0.5;entryDx=0;entryDy=0;" parent="1" source="zodPbSXafXfNkhSAw9ry-1" target="zodPbSXafXfNkhSAw9ry-2" edge="1">
                    <mxGeometry relative="1" as="geometry"/>
                </mxCell>
                <mxCell id="zodPbSXafXfNkhSAw9ry-1" value="&lt;b&gt;Form for Input Variables&lt;/b&gt;" style="rounded=0;whiteSpace=wrap;html=1;" parent="1" vertex="1">
                    <mxGeometry x="150" y="60" width="160" height="280" as="geometry"/>
                </mxCell>
                <mxCell id="zodPbSXafXfNkhSAw9ry-2" value="&lt;b&gt;Résultats de simulation&lt;/b&gt;" style="rounded=0;whiteSpace=wrap;html=1;" parent="1" vertex="1">
                    <mxGeometry x="450" y="60" width="160" height="280" as="geometry"/>
                </mxCell>
                <mxCell id="zodPbSXafXfNkhSAw9ry-4" value="SIM 1" style="rounded=0;whiteSpace=wrap;html=1;" parent="1" vertex="1">
                    <mxGeometry width="120" height="60" as="geometry"/>
                </mxCell>
            </root>
        </mxGraphModel>
    </diagram>
    <diagram id="pnIWSGV6N5bpSlgzCdSX" name="SBTi">
        <mxGraphModel dx="299" dy="611" grid="1" gridSize="10" guides="1" tooltips="1" connect="1" arrows="1" fold="1" page="1" pageScale="1" pageWidth="850" pageHeight="1100" math="0" shadow="0">
            <root>
                <mxCell id="0"/>
                <mxCell id="1" parent="0"/>
                <mxCell id="vnft-H9ISFIfMBeG-IU4-1" value="&lt;div&gt;&lt;b style=&quot;background-color: transparent;&quot;&gt;&lt;font style=&quot;color: rgb(128, 128, 128);&quot;&gt;Engagement&amp;nbsp;&lt;/font&gt;&lt;/b&gt;&lt;/div&gt;&lt;div&gt;&lt;b style=&quot;background-color: transparent;&quot;&gt;&lt;font style=&quot;color: rgb(128, 128, 128);&quot;&gt;&amp;nbsp; pour la neutralité carbonne&lt;/font&gt;&lt;/b&gt;&lt;/div&gt;" style="shape=step;perimeter=stepPerimeter;whiteSpace=wrap;html=1;fixedSize=1;align=center;strokeWidth=2;strokeColor=light-dark(#b85450, #ededed);fontFamily=Tahoma;fontSize=11.5;fontColor=#26C4FF;" parent="1" vertex="1">
                    <mxGeometry x="875" y="163" width="139" height="80" as="geometry"/>
                </mxCell>
                <mxCell id="vnft-H9ISFIfMBeG-IU4-3" value="&lt;font style=&quot;color: rgb(102, 102, 102);&quot;&gt;&lt;b style=&quot;&quot;&gt;&amp;nbsp; Fixation des objectifs&lt;/b&gt;&lt;/font&gt;" style="shape=step;perimeter=stepPerimeter;whiteSpace=wrap;html=1;fixedSize=1;fontSize=11.5;horizontal=1;verticalAlign=middle;strokeWidth=2;strokeColor=light-dark(#6c8ebf, #ededed);fontFamily=Tahoma;fontColor=default;" parent="1" vertex="1">
                    <mxGeometry x="1275" y="163" width="110" height="80" as="geometry"/>
                </mxCell>
                <mxCell id="vnft-H9ISFIfMBeG-IU4-4" value="" style="endArrow=classic;html=1;strokeColor=light-dark(#b85450, #ededed);strokeWidth=3;fontFamily=Tahoma;" parent="1" edge="1">
                    <mxGeometry relative="1" as="geometry">
                        <mxPoint x="870" y="83" as="sourcePoint"/>
                        <mxPoint x="1254" y="83" as="targetPoint"/>
                    </mxGeometry>
                </mxCell>
                <mxCell id="vnft-H9ISFIfMBeG-IU4-5" value="&lt;font style=&quot;font-size: 15px; color: rgb(21, 96, 130);&quot;&gt;&lt;b&gt;Préparation&lt;/b&gt;&lt;/font&gt;" style="edgeLabel;resizable=0;html=1;;align=center;verticalAlign=middle;fontColor=#156082;fontFamily=Tahoma;" parent="vnft-H9ISFIfMBeG-IU4-4" connectable="0" vertex="1">
                    <mxGeometry relative="1" as="geometry">
                        <mxPoint y="-20" as="offset"/>
                    </mxGeometry>
                </mxCell>
                <mxCell id="vnft-H9ISFIfMBeG-IU4-6" value="&lt;div&gt;&lt;b&gt;&lt;font style=&quot;color: rgb(102, 102, 102);&quot;&gt;&amp;nbsp; &amp;nbsp;Pré-validation&lt;/font&gt;&lt;/b&gt;&lt;/div&gt;" style="shape=step;perimeter=stepPerimeter;whiteSpace=wrap;html=1;fixedSize=1;fillColor=#f8cecc;strokeColor=#b85450;align=center;strokeWidth=2;fontFamily=Tahoma;fontSize=11.5;fontColor=#26C4FF;" parent="1" vertex="1">
                    <mxGeometry x="1004" y="163" width="120" height="80" as="geometry"/>
                </mxCell>
                <mxCell id="vnft-H9ISFIfMBeG-IU4-7" value="&lt;div&gt;&lt;b&gt;&lt;font style=&quot;color: rgb(102, 102, 102);&quot;&gt;Performance&lt;/font&gt;&lt;/b&gt;&lt;/div&gt;&lt;div&gt;&lt;b&gt;&lt;font style=&quot;color: rgb(102, 102, 102);&quot;&gt;Année de base&lt;/font&gt;&lt;/b&gt;&lt;/div&gt;" style="shape=step;perimeter=stepPerimeter;whiteSpace=wrap;html=1;fixedSize=1;align=center;strokeColor=light-dark(#b85450, #ededed);strokeWidth=2;fontFamily=Tahoma;fontSize=11.5;fontColor=#26C4FF;" parent="1" vertex="1">
                    <mxGeometry x="1114" y="163" width="140" height="80" as="geometry"/>
                </mxCell>
                <mxCell id="vnft-H9ISFIfMBeG-IU4-8" value="&lt;font style=&quot;color: rgb(102, 102, 102);&quot;&gt;&lt;b style=&quot;&quot;&gt;&amp;nbsp; Validation initiale&amp;nbsp;&lt;/b&gt;&lt;/font&gt;&lt;div&gt;&lt;font style=&quot;color: rgb(102, 102, 102);&quot;&gt;&lt;b&gt;ou&amp;nbsp;&lt;/b&gt;&lt;/font&gt;&lt;/div&gt;&lt;div&gt;&lt;font style=&quot;color: rgb(102, 102, 102);&quot;&gt;&lt;b style=&quot;&quot;&gt;Re-validation&lt;/b&gt;&lt;/font&gt;&lt;/div&gt;" style="shape=step;perimeter=stepPerimeter;whiteSpace=wrap;html=1;fixedSize=1;fontSize=11.5;horizontal=1;verticalAlign=middle;fillColor=#dae8fc;strokeColor=#6c8ebf;strokeWidth=2;fontFamily=Tahoma;fontColor=#26C4FF;" parent="1" vertex="1">
                    <mxGeometry x="1375" y="163" width="130" height="80" as="geometry"/>
                </mxCell>
                <mxCell id="vnft-H9ISFIfMBeG-IU4-9" value="&lt;font style=&quot;color: rgb(102, 102, 102);&quot;&gt;&lt;b style=&quot;&quot;&gt;&amp;nbsp; &amp;nbsp;Communication&amp;nbsp;&lt;/b&gt;&lt;/font&gt;&lt;div&gt;&lt;font style=&quot;color: rgb(102, 102, 102);&quot;&gt;&lt;b style=&quot;&quot;&gt;des objectifs&lt;/b&gt;&lt;/font&gt;&lt;/div&gt;" style="shape=step;perimeter=stepPerimeter;whiteSpace=wrap;html=1;fixedSize=1;fontSize=11.5;horizontal=1;verticalAlign=middle;strokeWidth=2;strokeColor=light-dark(#6c8ebf, #ededed);fontFamily=Tahoma;fontColor=#26C4FF;" parent="1" vertex="1">
                    <mxGeometry x="1495" y="163" width="130" height="80" as="geometry"/>
                </mxCell>
                <mxCell id="vnft-H9ISFIfMBeG-IU4-10" value="&lt;font style=&quot;color: rgb(102, 102, 102);&quot;&gt;&lt;b style=&quot;&quot;&gt;Plan de transition&amp;nbsp;&lt;/b&gt;&lt;/font&gt;&lt;div&gt;&lt;font style=&quot;color: rgb(102, 102, 102);&quot;&gt;&lt;span&gt;&lt;b&gt;+&lt;/b&gt;&lt;/span&gt;&lt;/font&gt;&lt;/div&gt;&lt;div&gt;&lt;font style=&quot;color: rgb(102, 102, 102);&quot;&gt;&lt;b&gt;&amp;nbsp;Implémentation&amp;nbsp;&lt;/b&gt;&lt;/font&gt;&lt;/div&gt;&lt;div&gt;&lt;font style=&quot;color: rgb(102, 102, 102);&quot;&gt;&lt;b style=&quot;&quot;&gt;des objectifs&lt;/b&gt;&lt;/font&gt;&lt;/div&gt;" style="shape=step;perimeter=stepPerimeter;whiteSpace=wrap;html=1;fixedSize=1;fontSize=11.5;horizontal=1;verticalAlign=middle;align=center;strokeWidth=2;strokeColor=light-dark(#82b366, #ededed);fontFamily=Tahoma;fontColor=#26C4FF;" parent="1" vertex="1">
                    <mxGeometry x="1644" y="163" width="150" height="80" as="geometry"/>
                </mxCell>
                <mxCell id="vnft-H9ISFIfMBeG-IU4-11" value="&lt;font style=&quot;color: rgb(102, 102, 102);&quot;&gt;&lt;b&gt;Evaluation&lt;/b&gt;&lt;/font&gt;&lt;div&gt;&lt;font style=&quot;color: rgb(102, 102, 102);&quot;&gt;&lt;span&gt;&lt;b&gt;+&lt;br&gt;&lt;/b&gt;&lt;/span&gt;&lt;/font&gt;&lt;div&gt;&lt;span style=&quot;background-color: transparent;&quot;&gt;&lt;font style=&quot;color: rgb(102, 102, 102);&quot;&gt;&lt;b&gt;&amp;nbsp; Communication&amp;nbsp;&lt;/b&gt;&lt;/font&gt;&lt;/span&gt;&lt;/div&gt;&lt;div&gt;&lt;span style=&quot;background-color: transparent;&quot;&gt;&lt;font style=&quot;color: rgb(102, 102, 102);&quot;&gt;&lt;b&gt;du progrès&lt;/b&gt;&lt;/font&gt;&lt;/span&gt;&lt;/div&gt;&lt;/div&gt;" style="shape=step;perimeter=stepPerimeter;whiteSpace=wrap;html=1;fixedSize=1;fontSize=11.5;horizontal=1;verticalAlign=middle;fillColor=#d5e8d4;strokeColor=#82b366;strokeWidth=2;fontFamily=Tahoma;fontColor=#26C4FF;" parent="1" vertex="1">
                    <mxGeometry x="1788" y="163" width="180" height="80" as="geometry"/>
                </mxCell>
                <mxCell id="vnft-H9ISFIfMBeG-IU4-12" value="" style="endArrow=classic;html=1;strokeColor=light-dark(#6c8ebf, #ededed);strokeWidth=3;fontFamily=Tahoma;" parent="1" edge="1">
                    <mxGeometry relative="1" as="geometry">
                        <mxPoint x="1280" y="83" as="sourcePoint"/>
                        <mxPoint x="1614" y="83" as="targetPoint"/>
                    </mxGeometry>
                </mxCell>
                <mxCell id="vnft-H9ISFIfMBeG-IU4-13" value="&lt;font style=&quot;font-size: 15px; color: rgb(21, 96, 130);&quot;&gt;&lt;b&gt;Développement des objectifs&lt;/b&gt;&lt;/font&gt;" style="edgeLabel;resizable=0;html=1;;align=center;verticalAlign=middle;fontColor=#156082;fontFamily=Tahoma;" parent="vnft-H9ISFIfMBeG-IU4-12" connectable="0" vertex="1">
                    <mxGeometry relative="1" as="geometry">
                        <mxPoint y="-20" as="offset"/>
                    </mxGeometry>
                </mxCell>
                <mxCell id="vnft-H9ISFIfMBeG-IU4-14" value="" style="endArrow=classic;html=1;fontFamily=Tahoma;strokeColor=light-dark(#82b366, #ededed);strokeWidth=3;" parent="1" edge="1">
                    <mxGeometry relative="1" as="geometry">
                        <mxPoint x="1643" y="83" as="sourcePoint"/>
                        <mxPoint x="1968" y="83" as="targetPoint"/>
                    </mxGeometry>
                </mxCell>
                <mxCell id="vnft-H9ISFIfMBeG-IU4-15" value="&lt;font style=&quot;font-size: 15px;&quot;&gt;&lt;b&gt;Implémentation&lt;/b&gt;&lt;/font&gt;" style="edgeLabel;resizable=0;html=1;;align=center;verticalAlign=middle;fontFamily=Tahoma;fontColor=#156082;" parent="vnft-H9ISFIfMBeG-IU4-14" connectable="0" vertex="1">
                    <mxGeometry relative="1" as="geometry">
                        <mxPoint y="-20" as="offset"/>
                    </mxGeometry>
                </mxCell>
                <mxCell id="vnft-H9ISFIfMBeG-IU4-16" value="&lt;font&gt;&lt;b&gt;&amp;lt;CNZS V2&amp;gt; Renouvellement de la validation SBTi&lt;/b&gt;: à chaque fin du cycle&lt;/font&gt;" style="rounded=1;whiteSpace=wrap;html=1;fillColor=#f5f5f5;fontColor=#333333;strokeColor=#666666;strokeWidth=1;fontFamily=Tahoma;fontSize=11;" parent="1" vertex="1">
                    <mxGeometry x="1334" y="103" width="410" height="30" as="geometry"/>
                </mxCell>
                <mxCell id="vnft-H9ISFIfMBeG-IU4-20" value="" style="endArrow=none;html=1;entryX=1;entryY=0.5;entryDx=0;entryDy=0;exitX=0.5;exitY=0;exitDx=0;exitDy=0;edgeStyle=orthogonalEdgeStyle;fontFamily=Tahoma;fontSize=11;fillColor=#1ba1e2;strokeColor=#006EAF;" parent="1" source="vnft-H9ISFIfMBeG-IU4-11" target="vnft-H9ISFIfMBeG-IU4-16" edge="1">
                    <mxGeometry width="50" height="50" relative="1" as="geometry">
                        <mxPoint x="1814" y="148" as="sourcePoint"/>
                        <mxPoint x="1864" y="98" as="targetPoint"/>
                    </mxGeometry>
                </mxCell>
                <mxCell id="vnft-H9ISFIfMBeG-IU4-21" style="edgeStyle=orthogonalEdgeStyle;html=1;exitX=0;exitY=0.5;exitDx=0;exitDy=0;entryX=0.5;entryY=0;entryDx=0;entryDy=0;fontFamily=Tahoma;fontSize=11;fillColor=#1ba1e2;strokeColor=#006EAF;" parent="1" source="vnft-H9ISFIfMBeG-IU4-16" target="vnft-H9ISFIfMBeG-IU4-7" edge="1">
                    <mxGeometry relative="1" as="geometry"/>
                </mxCell>
                <mxCell id="vnft-H9ISFIfMBeG-IU4-25" value="" style="endArrow=classic;html=1;fillColor=#e1d5e7;strokeColor=#9673a6;strokeWidth=2;fontFamily=Tahoma;fontSize=11.5;" parent="1" edge="1">
                    <mxGeometry width="50" height="50" relative="1" as="geometry">
                        <mxPoint x="1114" y="263" as="sourcePoint"/>
                        <mxPoint x="1474" y="263" as="targetPoint"/>
                    </mxGeometry>
                </mxCell>
                <mxCell id="vnft-H9ISFIfMBeG-IU4-26" value="&lt;span&gt;&lt;font style=&quot;color: rgb(102, 102, 102);&quot;&gt;&amp;lt;CNZS V2&amp;gt;: 12 mois (Cat A) / 24 mois (Cat B)&lt;/font&gt;&lt;/span&gt;" style="edgeLabel;html=1;align=center;verticalAlign=middle;resizable=0;points=[];fontStyle=1;fontSize=11;fontFamily=Tahoma;labelBorderColor=#808080;labelBackgroundColor=#FFFFFF;fontColor=#E0E0E0;" parent="vnft-H9ISFIfMBeG-IU4-25" vertex="1" connectable="0">
                    <mxGeometry x="-0.0054" relative="1" as="geometry">
                        <mxPoint x="-1" y="-1" as="offset"/>
                    </mxGeometry>
                </mxCell>
                <mxCell id="oqzWU3ad_FbQN9o3-oMm-2" value="" style="endArrow=classic;startArrow=classic;html=1;dashed=1;strokeWidth=1;strokeColor=#156082;" parent="1" edge="1">
                    <mxGeometry width="50" height="50" relative="1" as="geometry">
                        <mxPoint x="1370" y="300" as="sourcePoint"/>
                        <mxPoint x="1960" y="300" as="targetPoint"/>
                    </mxGeometry>
                </mxCell>
                <mxCell id="oqzWU3ad_FbQN9o3-oMm-3" value="5 ans pour un cycle d&#39;objectif" style="edgeLabel;html=1;align=center;verticalAlign=middle;resizable=0;points=[];fontFamily=Tahoma;fontSize=12;fontStyle=1;fontColor=#156082;" parent="oqzWU3ad_FbQN9o3-oMm-2" vertex="1" connectable="0">
                    <mxGeometry x="0.0814" y="-1" relative="1" as="geometry">
                        <mxPoint y="-11" as="offset"/>
                    </mxGeometry>
                </mxCell>
            </root>
        </mxGraphModel>
    </diagram>
</mxfile>